<svg xmlns="http://www.w3.org/2000/svg" viewBox="0 0 200 300"><g id="Layer_2" data-name="Layer 2"><g id="Background"><g id="Hours_Graphic" data-name="Hours Graphic"><g id="Hours_Graphic_Border" data-name="Hours Graphic Border"><path d="M171.93,4A24.1,24.1,0,0,1,196,28.07V271.93A24.1,24.1,0,0,1,171.93,296H28.07A24.1,24.1,0,0,1,4,271.93V28.07A24.1,24.1,0,0,1,28.07,4H171.93m0-4H28.07A28.07,28.07,0,0,0,0,28.07V271.93A28.07,28.07,0,0,0,28.07,300H171.93A28.07,28.07,0,0,0,200,271.93V28.07A28.07,28.07,0,0,0,171.93,0Z"/></g><g id="Inner_Square" data-name="Inner Square"><path d="M57,30a4,4,0,0,1,4,4V68a4,4,0,0,1-4,4H23a4,4,0,0,1-4-4V34a4,4,0,0,1,4-4H57m0-4H23a8,8,0,0,0-8,8V68a8,8,0,0,0,8,8H57a8,8,0,0,0,8-8V34a8,8,0,0,0-8-8Z"/><path d="M177,30a4,4,0,0,1,4,4V68a4,4,0,0,1-4,4H143a4,4,0,0,1-4-4V34a4,4,0,0,1,4-4h34m0-4H143a8,8,0,0,0-8,8V68a8,8,0,0,0,8,8h34a8,8,0,0,0,8-8V34a8,8,0,0,0-8-8Z"/><path d="M57,165a4,4,0,0,1,4,4v34a4,4,0,0,1-4,4H23a4,4,0,0,1-4-4V169a4,4,0,0,1,4-4H57m0-4H23a8,8,0,0,0-8,8v34a8,8,0,0,0,8,8H57a8,8,0,0,0,8-8V169a8,8,0,0,0-8-8Z"/><path d="M117,97.5a4,4,0,0,1,4,4v34a4,4,0,0,1-4,4H83a4,4,0,0,1-4-4v-34a4,4,0,0,1,4-4h34m0-4H83a8,8,0,0,0-8,8v34a8,8,0,0,0,8,8h34a8,8,0,0,0,8-8v-34a8,8,0,0,0-8-8Z"/><path d="M57,97.5a4,4,0,0,1,4,4v34a4,4,0,0,1-4,4H23a4,4,0,0,1-4-4v-34a4,4,0,0,1,4-4H57m0-4H23a8,8,0,0,0-8,8v34a8,8,0,0,0,8,8H57a8,8,0,0,0,8-8v-34a8,8,0,0,0-8-8Z"/><path d="M117,165a4,4,0,0,1,4,4v34a4,4,0,0,1-4,4H83a4,4,0,0,1-4-4V169a4,4,0,0,1,4-4h34m0-4H83a8,8,0,0,0-8,8v34a8,8,0,0,0,8,8h34a8,8,0,0,0,8-8V169a8,8,0,0,0-8-8Z"/><path d="M177,232.5a4,4,0,0,1,4,4v34a4,4,0,0,1-4,4H143a4,4,0,0,1-4-4v-34a4,4,0,0,1,4-4h34m0-4H143a8,8,0,0,0-8,8v34a8,8,0,0,0,8,8h34a8,8,0,0,0,8-8v-34a8,8,0,0,0-8-8Z"/><path d="M177,97.5a4,4,0,0,1,4,4v34a4,4,0,0,1-4,4H143a4,4,0,0,1-4-4v-34a4,4,0,0,1,4-4h34m0-4H143a8,8,0,0,0-8,8v34a8,8,0,0,0,8,8h34a8,8,0,0,0,8-8v-34a8,8,0,0,0-8-8Z"/><path d="M57,232.5a4,4,0,0,1,4,4v34a4,4,0,0,1-4,4H23a4,4,0,0,1-4-4v-34a4,4,0,0,1,4-4H57m0-4H23a8,8,0,0,0-8,8v34a8,8,0,0,0,8,8H57a8,8,0,0,0,8-8v-34a8,8,0,0,0-8-8Z"/><path d="M117,30a4,4,0,0,1,4,4V68a4,4,0,0,1-4,4H83a4,4,0,0,1-4-4V34a4,4,0,0,1,4-4h34m0-4H83a8,8,0,0,0-8,8V68a8,8,0,0,0,8,8h34a8,8,0,0,0,8-8V34a8,8,0,0,0-8-8Z"/><path d="M117,232.5a4,4,0,0,1,4,4v34a4,4,0,0,1-4,4H83a4,4,0,0,1-4-4v-34a4,4,0,0,1,4-4h34m0-4H83a8,8,0,0,0-8,8v34a8,8,0,0,0,8,8h34a8,8,0,0,0,8-8v-34a8,8,0,0,0-8-8Z"/><path d="M177,165a4,4,0,0,1,4,4v34a4,4,0,0,1-4,4H143a4,4,0,0,1-4-4V169a4,4,0,0,1,4-4h34m0-4H143a8,8,0,0,0-8,8v34a8,8,0,0,0,8,8h34a8,8,0,0,0,8-8V169a8,8,0,0,0-8-8Z"/></g></g></g></g></svg>