<svg xmlns="http://www.w3.org/2000/svg" viewBox="0 0 116 87.5"><defs><style>.cls-1,.cls-2,.cls-3,.cls-4,.cls-5,.cls-6{fill:none;stroke:#000;stroke-miterlimit:10;}.cls-1{stroke-width:0.48px;}.cls-2{stroke-width:0.39px;}.cls-3{stroke-width:0.41px;}.cls-4{stroke-width:0.33px;}.cls-5{stroke-width:0.29px;}.cls-6{stroke-width:0.16px;}.cls-7{font-size:16.63px;font-family:ArtifaktElement-Regular, Artifakt Element;}.cls-8{letter-spacing:-0.02em;}</style></defs><g id="Layer_2" data-name="Layer 2"><g id="Layer_2-2" data-name="Layer 2"><g id="Logo"><g id="Vending_Machine" data-name="Vending Machine"><g id="Inner_Square" data-name="Inner Square"><path d="M109.56,35.17a.08.08,0,0,1,.08.09V36a.07.07,0,0,1-.08.08h-.72a.08.08,0,0,1-.09-.08v-.72a.09.09,0,0,1,.09-.09h.72m0-.08h-.72a.18.18,0,0,0-.17.17V36a.18.18,0,0,0,.17.17h.72a.18.18,0,0,0,.17-.17v-.72a.18.18,0,0,0-.17-.17Z"/><path d="M112.1,35.17a.09.09,0,0,1,.08.09V36a.08.08,0,0,1-.08.08h-.72a.08.08,0,0,1-.09-.08v-.72a.09.09,0,0,1,.09-.09h.72m0-.08h-.72a.17.17,0,0,0-.17.17V36a.17.17,0,0,0,.17.17h.72a.18.18,0,0,0,.17-.17v-.72a.18.18,0,0,0-.17-.17Z"/><path d="M109.56,38a.08.08,0,0,1,.08.09v.71a.08.08,0,0,1-.08.09h-.72a.09.09,0,0,1-.09-.09v-.71a.09.09,0,0,1,.09-.09h.72m0-.08h-.72a.17.17,0,0,0-.17.17v.71a.17.17,0,0,0,.17.17h.72a.17.17,0,0,0,.17-.17v-.71a.17.17,0,0,0-.17-.17Z"/><path d="M110.83,36.6a.09.09,0,0,1,.08.09v.72a.09.09,0,0,1-.08.08h-.72a.09.09,0,0,1-.09-.08v-.72a.09.09,0,0,1,.09-.09h.72m0-.08h-.72a.17.17,0,0,0-.17.17v.72a.18.18,0,0,0,.17.17h.72a.18.18,0,0,0,.17-.17v-.72a.17.17,0,0,0-.17-.17Z"/><path d="M109.56,36.6a.08.08,0,0,1,.08.09v.72a.08.08,0,0,1-.08.08h-.72a.09.09,0,0,1-.09-.08v-.72a.09.09,0,0,1,.09-.09h.72m0-.08h-.72a.17.17,0,0,0-.17.17v.72a.18.18,0,0,0,.17.17h.72a.18.18,0,0,0,.17-.17v-.72a.17.17,0,0,0-.17-.17Z"/><path d="M110.83,38a.09.09,0,0,1,.08.09v.71a.09.09,0,0,1-.08.09h-.72a.09.09,0,0,1-.09-.09v-.71a.09.09,0,0,1,.09-.09h.72m0-.08h-.72a.17.17,0,0,0-.17.17v.71a.17.17,0,0,0,.17.17h.72a.17.17,0,0,0,.17-.17v-.71a.17.17,0,0,0-.17-.17Z"/><path d="M112.1,39.46a.09.09,0,0,1,.08.08v.72a.09.09,0,0,1-.08.09h-.72a.09.09,0,0,1-.09-.09v-.72a.09.09,0,0,1,.09-.08h.72m0-.09h-.72a.17.17,0,0,0-.17.17v.72a.16.16,0,0,0,.17.17h.72a.17.17,0,0,0,.17-.17v-.72a.18.18,0,0,0-.17-.17Z"/><path d="M112.1,36.6a.09.09,0,0,1,.08.09v.72a.09.09,0,0,1-.08.08h-.72a.09.09,0,0,1-.09-.08v-.72a.09.09,0,0,1,.09-.09h.72m0-.08h-.72a.16.16,0,0,0-.17.17v.72a.17.17,0,0,0,.17.17h.72a.18.18,0,0,0,.17-.17v-.72a.17.17,0,0,0-.17-.17Z"/><path d="M109.56,39.46a.08.08,0,0,1,.08.08v.72a.08.08,0,0,1-.08.09h-.72a.09.09,0,0,1-.09-.09v-.72a.09.09,0,0,1,.09-.08h.72m0-.09h-.72a.18.18,0,0,0-.17.17v.72a.17.17,0,0,0,.17.17h.72a.17.17,0,0,0,.17-.17v-.72a.18.18,0,0,0-.17-.17Z"/><path d="M110.83,35.17a.09.09,0,0,1,.08.09V36a.08.08,0,0,1-.08.08h-.72A.08.08,0,0,1,110,36v-.72a.09.09,0,0,1,.09-.09h.72m0-.08h-.72a.18.18,0,0,0-.17.17V36a.18.18,0,0,0,.17.17h.72A.18.18,0,0,0,111,36v-.72a.18.18,0,0,0-.17-.17Z"/><path d="M110.83,39.46a.09.09,0,0,1,.08.08v.72a.09.09,0,0,1-.08.09h-.72a.09.09,0,0,1-.09-.09v-.72a.09.09,0,0,1,.09-.08h.72m0-.09h-.72a.18.18,0,0,0-.17.17v.72a.17.17,0,0,0,.17.17h.72a.17.17,0,0,0,.17-.17v-.72a.18.18,0,0,0-.17-.17Z"/><path d="M112.1,38a.09.09,0,0,1,.08.09v.71a.09.09,0,0,1-.08.09h-.72a.09.09,0,0,1-.09-.09v-.71a.09.09,0,0,1,.09-.09h.72m0-.08h-.72a.16.16,0,0,0-.17.17v.71a.16.16,0,0,0,.17.17h.72a.17.17,0,0,0,.17-.17v-.71a.17.17,0,0,0-.17-.17Z"/></g><path d="M115.35.48V75.76H68.66V.48h46.69m.48-.48H68.18V76.24h47.65V0Z"/><path d="M70.68,76.71v8h-2v-8h2m.48-.47h-3v8.93h3V76.24Z"/><path d="M115.35,76.71v8h-2v-8h2m.48-.47h-3v8.93h3V76.24Z"/><path d="M105,4V62.3H72.23V4H105m.48-.48H71.75V62.78h33.72V3.51Z"/><path d="M102.37,66.47a.71.71,0,0,1,.71.71v4.29a.71.71,0,0,1-.71.72H74.85a.71.71,0,0,1-.71-.72V67.18a.71.71,0,0,1,.71-.71h27.52m0-.48H74.85a1.19,1.19,0,0,0-1.19,1.19v4.29a1.19,1.19,0,0,0,1.19,1.19h27.52a1.19,1.19,0,0,0,1.19-1.19V67.18A1.19,1.19,0,0,0,102.37,66Z"/><path d="M112,27a1.9,1.9,0,0,1,1.9,1.9V53.73a1.9,1.9,0,0,1-1.9,1.9h-3.23a1.91,1.91,0,0,1-1.9-1.9V28.94a1.91,1.91,0,0,1,1.9-1.9H112m0-.48h-3.23a2.38,2.38,0,0,0-2.37,2.38V53.73a2.38,2.38,0,0,0,2.37,2.38H112a2.38,2.38,0,0,0,2.38-2.38V28.94A2.38,2.38,0,0,0,112,26.56Z"/><line class="cls-1" x1="92" y1="12.24" x2="98.13" y2="19.85"/><line class="cls-1" x1="87.02" y1="10.54" x2="99.79" y2="27.3"/><rect class="cls-2" x="108.15" y="34.25" width="4.65" height="7.03"/><rect class="cls-3" x="108.15" y="30.2" width="4.65" height="2.14"/><rect class="cls-3" x="108.15" y="43.18" width="4.65" height="4.65"/><rect class="cls-4" x="108.83" y="66.65" width="3.28" height="3.34"/><rect class="cls-3" x="108.15" y="49.26" width="3.22" height="5.48"/><circle class="cls-5" cx="112.79" cy="53.31" r="0.6"/><rect class="cls-6" x="112.49" y="49.61" width="0.6" height="2.38"/></g><text/><text class="cls-7" transform="translate(37.51 37.49) scale(0.99 1)">The<tspan class="cls-8" x="-36" y="19.95">V</tspan><tspan x="-25.94" y="19.95">ending</tspan><tspan x="-37.99" y="39.9">Machine</tspan></text><rect y="84" width="116" height="3.5"/></g></g></g></svg>