<svg xmlns="http://www.w3.org/2000/svg" viewBox="0 0 292.74 232"><defs><style>.cls-1,.cls-4{fill:none;}.cls-1,.cls-2,.cls-3,.cls-4{stroke:#000;stroke-miterlimit:10;}.cls-1{stroke-width:4px;}.cls-2{fill:#fff;}.cls-2,.cls-4{stroke-width:2.76px;}.cls-3{stroke-width:1.55px;}</style></defs><g id="Layer_2" data-name="Layer 2"><g id="Background"><g id="Survey_Graphic" data-name="Survey Graphic"><rect class="cls-1" x="2" y="2" width="260" height="228" rx="21.38"/><rect class="cls-1" x="24.5" y="24" width="216" height="52"/><rect class="cls-1" x="24" y="115.5" width="217" height="22"/><rect class="cls-1" x="24" y="170.5" width="217" height="22"/><polygon class="cls-2" points="252.8 72.91 287.26 97.74 232.89 173.19 198.5 186.33 198.9 148.71 252.8 72.91"/><path class="cls-2" d="M287.26,97.74s11.47-17.91-4-29c-16-11.55-30.48,4.22-30.48,4.22Z"/><polygon class="cls-3" points="199.66 184.12 199.66 177.23 206.19 181.94 199.66 184.12"/><line class="cls-4" x1="198.9" y1="148.71" x2="232.89" y2="173.2"/><rect class="cls-2" x="222.06" y="76.06" width="42.47" height="93.74" transform="translate(117.77 -119.04) rotate(35.78)"/></g></g></g></svg>