<svg xmlns="http://www.w3.org/2000/svg" viewBox="0 0 400 715"><defs><style>.cls-1,.cls-2,.cls-3,.cls-4,.cls-5,.cls-6{fill:none;stroke:#000;stroke-miterlimit:10;}.cls-1{stroke-width:4px;}.cls-2{stroke-width:3.26px;}.cls-3{stroke-width:3.42px;}.cls-4{stroke-width:2.79px;}.cls-5{stroke-width:2.44px;}.cls-6{stroke-width:1.3px;}</style></defs><g id="Layer_2" data-name="Layer 2"><g id="Background"><g id="Vending_Machine" data-name="Vending Machine"><g id="Inner_Square" data-name="Inner Square"><path d="M347.36,295.29a.71.71,0,0,1,.71.71v6a.71.71,0,0,1-.71.71h-6a.71.71,0,0,1-.71-.71v-6a.71.71,0,0,1,.71-.71h6m0-.71h-6a1.42,1.42,0,0,0-1.42,1.42v6a1.42,1.42,0,0,0,1.42,1.42h6a1.42,1.42,0,0,0,1.42-1.42v-6a1.42,1.42,0,0,0-1.42-1.42Z"/><path d="M368.67,295.29a.71.71,0,0,1,.71.71v6a.71.71,0,0,1-.71.71h-6a.71.71,0,0,1-.71-.71v-6a.71.71,0,0,1,.71-.71h6m0-.71h-6a1.42,1.42,0,0,0-1.42,1.42v6a1.42,1.42,0,0,0,1.42,1.42h6a1.42,1.42,0,0,0,1.42-1.42v-6a1.42,1.42,0,0,0-1.42-1.42Z"/><path d="M347.36,319.26a.71.71,0,0,1,.71.71v6a.71.71,0,0,1-.71.71h-6a.71.71,0,0,1-.71-.71v-6a.71.71,0,0,1,.71-.71h6m0-.71h-6a1.42,1.42,0,0,0-1.42,1.42v6a1.41,1.41,0,0,0,1.42,1.42h6a1.41,1.41,0,0,0,1.42-1.42v-6a1.42,1.42,0,0,0-1.42-1.42Z"/><path d="M358,307.28a.71.71,0,0,1,.71.71v6a.71.71,0,0,1-.71.71h-6a.71.71,0,0,1-.71-.71v-6a.71.71,0,0,1,.71-.71h6m0-.71h-6a1.42,1.42,0,0,0-1.42,1.42v6a1.43,1.43,0,0,0,1.42,1.42h6a1.43,1.43,0,0,0,1.42-1.42v-6a1.42,1.42,0,0,0-1.42-1.42Z"/><path d="M347.36,307.28a.71.71,0,0,1,.71.71v6a.71.71,0,0,1-.71.71h-6a.71.71,0,0,1-.71-.71v-6a.71.71,0,0,1,.71-.71h6m0-.71h-6a1.41,1.41,0,0,0-1.42,1.42v6a1.42,1.42,0,0,0,1.42,1.42h6a1.42,1.42,0,0,0,1.42-1.42v-6a1.41,1.41,0,0,0-1.42-1.42Z"/><path d="M358,319.26a.71.71,0,0,1,.71.71v6a.71.71,0,0,1-.71.71h-6a.71.71,0,0,1-.71-.71v-6a.71.71,0,0,1,.71-.71h6m0-.71h-6a1.43,1.43,0,0,0-1.42,1.42v6a1.42,1.42,0,0,0,1.42,1.42h6a1.42,1.42,0,0,0,1.42-1.42v-6a1.43,1.43,0,0,0-1.42-1.42Z"/><path d="M368.67,331.25a.71.71,0,0,1,.71.71v6a.71.71,0,0,1-.71.71h-6a.71.71,0,0,1-.71-.71v-6a.71.71,0,0,1,.71-.71h6m0-.71h-6a1.42,1.42,0,0,0-1.42,1.42v6a1.42,1.42,0,0,0,1.42,1.42h6a1.42,1.42,0,0,0,1.42-1.42v-6a1.42,1.42,0,0,0-1.42-1.42Z"/><path d="M368.67,307.28a.71.71,0,0,1,.71.71v6a.71.71,0,0,1-.71.71h-6a.71.71,0,0,1-.71-.71v-6a.71.71,0,0,1,.71-.71h6m0-.71h-6a1.41,1.41,0,0,0-1.42,1.42v6a1.42,1.42,0,0,0,1.42,1.42h6a1.42,1.42,0,0,0,1.42-1.42v-6a1.41,1.41,0,0,0-1.42-1.42Z"/><path d="M347.36,331.25a.71.71,0,0,1,.71.71v6a.71.71,0,0,1-.71.71h-6a.71.71,0,0,1-.71-.71v-6a.71.71,0,0,1,.71-.71h6m0-.71h-6a1.42,1.42,0,0,0-1.42,1.42v6a1.42,1.42,0,0,0,1.42,1.42h6a1.42,1.42,0,0,0,1.42-1.42v-6a1.42,1.42,0,0,0-1.42-1.42Z"/><path d="M358,295.29a.71.71,0,0,1,.71.71v6a.71.71,0,0,1-.71.71h-6a.71.71,0,0,1-.71-.71v-6a.71.71,0,0,1,.71-.71h6m0-.71h-6a1.43,1.43,0,0,0-1.42,1.42v6a1.43,1.43,0,0,0,1.42,1.42h6a1.43,1.43,0,0,0,1.42-1.42v-6a1.43,1.43,0,0,0-1.42-1.42Z"/><path d="M358,331.25a.71.71,0,0,1,.71.71v6a.71.71,0,0,1-.71.71h-6a.71.71,0,0,1-.71-.71v-6a.71.71,0,0,1,.71-.71h6m0-.71h-6a1.43,1.43,0,0,0-1.42,1.42v6a1.43,1.43,0,0,0,1.42,1.42h6a1.43,1.43,0,0,0,1.42-1.42v-6a1.43,1.43,0,0,0-1.42-1.42Z"/><path d="M368.67,319.26a.71.71,0,0,1,.71.71v6a.71.71,0,0,1-.71.71h-6a.71.71,0,0,1-.71-.71v-6a.71.71,0,0,1,.71-.71h6m0-.71h-6a1.42,1.42,0,0,0-1.42,1.42v6a1.41,1.41,0,0,0,1.42,1.42h6a1.41,1.41,0,0,0,1.42-1.42v-6a1.42,1.42,0,0,0-1.42-1.42Z"/></g><path d="M396,4V636H4V4H396m4-4H0V640H400V0Z"/><path d="M21,644v67H4V644H21m4-4H0v75H25V640Z"/><path d="M396,644v67H379V644h17m4-4H375v75h25V640Z"/><path d="M309,33.5V523H34V33.5H309m4-4H30V527H313V29.5Z"/><path d="M287,558a6,6,0,0,1,6,6v36a6,6,0,0,1-6,6H56a6,6,0,0,1-6-6V564a6,6,0,0,1,6-6H287m0-4H56a10,10,0,0,0-10,10v36a10,10,0,0,0,10,10H287a10,10,0,0,0,10-10V564a10,10,0,0,0-10-10Z"/><path d="M368.05,227A16,16,0,0,1,384,243v208.1A16,16,0,0,1,368.05,467H341A16,16,0,0,1,325,451.05V243A16,16,0,0,1,341,227h27.1m0-4H341A20,20,0,0,0,321,243v208.1A20,20,0,0,0,341,471h27.1A20,20,0,0,0,388,451.05V243A20,20,0,0,0,368.05,223Z"/><line class="cls-1" x1="200" y1="102.72" x2="251.38" y2="166.6"/><line class="cls-1" x1="158.15" y1="88.5" x2="265.38" y2="229.21"/><rect class="cls-2" x="335.5" y="287.5" width="39" height="59"/><rect class="cls-3" x="335.5" y="253.5" width="39" height="18"/><rect class="cls-3" x="335.5" y="362.5" width="39" height="39"/><rect class="cls-4" x="341.25" y="559.5" width="27.5" height="28"/><rect class="cls-3" x="335.5" y="413.5" width="27" height="46"/><circle class="cls-5" cx="374.5" cy="447.5" r="5"/><rect class="cls-6" x="372" y="416.5" width="5" height="20"/></g></g></g></svg>